<svg width="122" height="42" fill="none" xmlns="http://www.w3.org/2000/svg"><path d="M26.221 23.864c.277 0 .49.128.64.384.17.256.256.608.256 1.056 0 .832-.203 1.493-.608 1.984-1.195 1.43-2.357 2.432-3.488 3.008-1.11.576-2.453.864-4.032.864-1.11 0-2.133-.139-3.072-.416-.938-.277-2.08-.693-3.424-1.248a31.338 31.338 0 00-3.52-1.312c-1.088 1.984-2.72 2.976-4.896 2.976-1.195 0-2.144-.267-2.848-.8-.725-.555-1.088-1.259-1.088-2.112 0-1.045.501-1.91 1.504-2.592 1.003-.704 2.336-1.056 4-1.056h.416l.576-9.312c.128-2.133.512-3.893 1.152-5.28a10.434 10.434 0 012.656-3.552 9.922 9.922 0 013.36-1.92 11.84 11.84 0 014-.672c2.304 0 4.075.597 5.312 1.792 1.238 1.195 1.856 2.752 1.856 4.672 0 1.301-.235 2.357-.704 3.168-.47.79-1.12 1.184-1.952 1.184-.597 0-1.067-.139-1.408-.416-.341-.299-.512-.715-.512-1.248 0-.192.043-.544.128-1.056a7.72 7.72 0 00.192-1.6c0-.896-.266-1.6-.8-2.112-.512-.533-1.301-.8-2.368-.8-1.877 0-3.328.619-4.352 1.856-1.024 1.216-1.674 3.136-1.952 5.76l-.736 7.264a22.574 22.574 0 01-.416 2.656c1.366.235 3.072.608 5.12 1.12 1.195.299 2.112.512 2.752.64.64.128 1.206.192 1.696.192 1.237 0 2.293-.203 3.168-.608.896-.427 1.739-1.099 2.528-2.016.256-.299.544-.448.864-.448zm2.491-9.888c-.896 0-1.568-.203-2.016-.608-.448-.427-.672-1.013-.672-1.76 0-.747.288-1.365.864-1.856.598-.512 1.334-.768 2.208-.768.79 0 1.43.192 1.92.576.491.384.736.928.736 1.632 0 .853-.277 1.536-.832 2.048-.554.49-1.29.736-2.208.736zm-.256 17.184c-1.386 0-2.4-.49-3.04-1.472-.618-.981-.928-2.283-.928-3.904 0-.96.118-2.187.352-3.68a36.31 36.31 0 01.96-4.224c.192-.683.448-1.152.768-1.408s.832-.384 1.536-.384c1.088 0 1.632.363 1.632 1.088 0 .533-.202 1.77-.608 3.712-.512 2.347-.768 3.936-.768 4.768 0 .64.086 1.13.256 1.472.171.341.459.512.864.512.384 0 .864-.267 1.44-.8s1.344-1.376 2.304-2.528c.256-.299.544-.448.864-.448.278 0 .491.128.64.384.171.256.256.608.256 1.056 0 .853-.202 1.515-.608 1.984-2.112 2.581-4.085 3.872-5.92 3.872zm16.395-9.12c.597 0 .896.448.896 1.344 0 1.685-1.323 2.528-3.968 2.528-.512 0-1.248-.096-2.208-.288a44.18 44.18 0 01.672 4.416c.192 1.6.288 2.923.288 3.968 0 2.304-.373 4.064-1.12 5.28-.747 1.216-1.728 1.824-2.944 1.824-1.536 0-2.635-1.088-3.296-3.264-.64-2.176-.96-5.461-.96-9.856 0-4.096.437-8.245 1.312-12.448.896-4.224 2.112-7.712 3.648-10.464C38.728 2.307 40.435.92 42.29.92c1.003 0 1.781.448 2.336 1.344.576.896.864 2.101.864 3.616 0 5.013-2.998 10.475-8.992 16.384-.214 2.09-.32 3.925-.32 5.504 0 2.197.075 4.448.224 6.752.15 2.325.395 3.488.736 3.488.64 0 .96-1.11.96-3.328a32.35 32.35 0 00-.352-4.832 60.874 60.874 0 00-.896-4.928c-.021-.277.064-.63.256-1.056.213-.427.47-.8.768-1.12.298-.32.565-.48.8-.48.427 0 .939.021 1.536.064.192.021.416.032.672.032.853 0 1.802-.075 2.848-.224.17-.021.352-.043.544-.064a5.22 5.22 0 01.576-.032zM41.619 4.088c-.384 0-.864.65-1.44 1.952-.555 1.301-1.11 3.03-1.664 5.184a80.434 80.434 0 00-1.44 6.784c1.706-1.941 3.018-3.957 3.936-6.048.917-2.112 1.386-4.085 1.408-5.92 0-1.301-.267-1.952-.8-1.952zm15.986 19.776c.277 0 .49.128.64.384.17.256.256.608.256 1.056 0 .853-.203 1.515-.608 1.984-.79.96-1.91 1.845-3.36 2.656a9.189 9.189 0 01-4.608 1.216c-2.24 0-3.979-.608-5.216-1.824-1.238-1.216-1.856-2.88-1.856-4.992 0-1.472.31-2.837.928-4.096.619-1.28 1.472-2.293 2.56-3.04 1.11-.747 2.357-1.12 3.744-1.12 1.237 0 2.23.373 2.976 1.12.746.725 1.12 1.717 1.12 2.976 0 1.472-.533 2.741-1.6 3.808-1.046 1.045-2.827 1.877-5.344 2.496.533.981 1.546 1.472 3.04 1.472.96 0 2.048-.33 3.264-.992a10.98 10.98 0 003.2-2.656c.256-.299.544-.448.864-.448zm-8.064-4.64c-.79 0-1.461.459-2.016 1.376-.533.917-.8 2.027-.8 3.328v.064c1.258-.299 2.25-.747 2.976-1.344.725-.597 1.088-1.29 1.088-2.08 0-.405-.117-.725-.352-.96-.213-.256-.512-.384-.896-.384zM81.27 4.44c.662.128 1.152.352 1.472.672.342.32.512.693.512 1.12 0 .704-.202 1.216-.608 1.536-.384.32-1.002.448-1.856.384-1.92-.15-3.424-.245-4.512-.288a92.643 92.643 0 00-4.224-.128 361.31 361.31 0 00-2.176 11.84c-.234 1.45-.48 3.136-.736 5.056-.256 1.899-.426 3.435-.512 4.608-.042.619-.298 1.099-.768 1.44-.469.32-1.034.48-1.696.48-.704 0-1.248-.17-1.632-.512-.384-.341-.576-.79-.576-1.344 0-.512.075-1.355.224-2.528.171-1.195.363-2.443.576-3.744.235-1.301.416-2.432.544-3.392.235-1.621.502-3.232.8-4.832.299-1.6.598-3.115.896-4.544.064-.32.139-.683.224-1.088.086-.427.182-.896.288-1.408-2.09.064-3.733.235-4.928.512-1.194.277-2.048.672-2.56 1.184-.49.49-.736 1.13-.736 1.92 0 .725.214 1.419.64 2.08.086.15.128.31.128.48 0 .405-.245.79-.736 1.152-.469.341-.96.512-1.472.512-.362 0-.661-.107-.896-.32-.426-.363-.778-.875-1.056-1.536-.277-.683-.416-1.45-.416-2.304 0-1.813.587-3.264 1.76-4.352 1.195-1.11 2.998-1.92 5.408-2.432 2.432-.512 5.547-.768 9.344-.768 2.347 0 4.214.043 5.6.128 1.408.085 2.635.224 3.68.416zm.16 9.536c-.896 0-1.568-.203-2.016-.608-.448-.427-.672-1.013-.672-1.76 0-.747.288-1.365.864-1.856.597-.512 1.334-.768 2.208-.768.79 0 1.43.192 1.92.576.49.384.736.928.736 1.632 0 .853-.277 1.536-.832 2.048-.554.49-1.29.736-2.208.736zm-.256 17.184c-1.386 0-2.4-.49-3.04-1.472-.619-.981-.928-2.283-.928-3.904 0-.96.118-2.187.352-3.68a36.31 36.31 0 01.96-4.224c.192-.683.448-1.152.768-1.408s.832-.384 1.536-.384c1.088 0 1.632.363 1.632 1.088 0 .533-.203 1.77-.608 3.712-.512 2.347-.768 3.936-.768 4.768 0 .64.086 1.13.256 1.472.17.341.459.512.864.512.384 0 .864-.267 1.44-.8s1.344-1.376 2.304-2.528c.256-.299.544-.448.864-.448.278 0 .49.128.64.384.17.256.256.608.256 1.056 0 .853-.203 1.515-.608 1.984-2.112 2.581-4.085 3.872-5.92 3.872zm6.211 0c-.81 0-1.386-.427-1.728-1.28-.32-.853-.48-2.219-.48-4.096 0-2.773.395-5.408 1.184-7.904.192-.619.502-1.067.928-1.344.448-.299 1.067-.448 1.856-.448.427 0 .725.053.896.16.17.107.256.31.256.608 0 .341-.16 1.11-.48 2.304-.213.853-.384 1.6-.512 2.24a21.444 21.444 0 00-.32 2.336c.576-1.664 1.259-3.072 2.048-4.224.81-1.152 1.632-2.005 2.464-2.56.853-.576 1.653-.864 2.4-.864.747 0 1.27.17 1.568.512.32.341.48.864.48 1.568 0 .683-.203 1.92-.608 3.712a36.22 36.22 0 00-.352 1.728c1.067-2.624 2.25-4.533 3.552-5.728 1.301-1.195 2.517-1.792 3.648-1.792 1.387 0 2.08.693 2.08 2.08 0 .832-.235 2.336-.704 4.512-.405 1.856-.608 3.083-.608 3.68 0 .853.309 1.28.928 1.28.427 0 .928-.256 1.504-.768.597-.533 1.387-1.387 2.368-2.56.256-.299.544-.448.864-.448.277 0 .491.128.64.384.171.256.256.608.256 1.056 0 .853-.203 1.515-.608 1.984-.917 1.13-1.909 2.059-2.976 2.784-1.045.725-2.24 1.088-3.584 1.088-1.088 0-1.909-.31-2.464-.928-.555-.64-.832-1.557-.832-2.752 0-.597.149-1.664.448-3.2.277-1.344.416-2.272.416-2.784 0-.341-.117-.512-.352-.512-.277 0-.672.363-1.184 1.088-.512.704-1.024 1.643-1.536 2.816a22.986 22.986 0 00-1.248 3.712c-.234 1.024-.512 1.707-.832 2.048-.299.341-.79.512-1.472.512-.704 0-1.237-.33-1.6-.992-.341-.683-.512-1.504-.512-2.464 0-.81.107-1.984.32-3.52.17-1.365.256-2.261.256-2.688 0-.341-.117-.512-.352-.512-.32 0-.725.384-1.216 1.152-.49.768-.97 1.75-1.44 2.944a30.106 30.106 0 00-1.088 3.52c-.234 1.003-.512 1.685-.832 2.048-.298.341-.778.512-1.44.512zm32.997-6.336c.277 0 .49.128.64.384.17.256.256.608.256 1.056 0 .768-.182 1.43-.544 1.984a6.206 6.206 0 01-2.368 2.144c-.96.512-2.112.768-3.456.768-2.048 0-3.638-.608-4.768-1.824-1.131-1.237-1.696-2.901-1.696-4.992 0-1.472.309-2.837.928-4.096.618-1.28 1.472-2.293 2.56-3.04 1.109-.747 2.357-1.12 3.744-1.12 1.237 0 2.229.373 2.976 1.12.746.725 1.12 1.717 1.12 2.976 0 1.472-.534 2.741-1.6 3.808-1.046 1.045-2.838 1.877-5.376 2.496.512.981 1.376 1.472 2.592 1.472.874 0 1.589-.203 2.144-.608.576-.405 1.237-1.088 1.984-2.048.256-.32.544-.48.864-.48zm-5.248-5.6c-.79 0-1.462.459-2.016 1.376-.534.917-.8 2.027-.8 3.328v.064c1.258-.299 2.25-.747 2.976-1.344.725-.597 1.088-1.29 1.088-2.08 0-.405-.118-.725-.352-.96-.214-.256-.512-.384-.896-.384z" fill="#2E2828"/></svg>